<mxfile host="app.diagrams.net" modified="2022-02-06T16:06:28.070Z" agent="5.0 (Windows NT 10.0; Win64; x64) AppleWebKit/537.36 (KHTML, like Gecko) Chrome/97.0.4692.99 Safari/537.36" etag="x_4O9KK8I0-g2Fa73HDW" version="16.5.2" type="github" pages="5">
  <diagram id="C5RBs43oDa-KdzZeNtuy" name="Page-1">
    <mxGraphModel dx="1839" dy="934" grid="0" gridSize="10" guides="1" tooltips="1" connect="1" arrows="1" fold="1" page="1" pageScale="1" pageWidth="827" pageHeight="1169" background="#F4F1DE" math="0" shadow="0">
      <root>
        <mxCell id="WIyWlLk6GJQsqaUBKTNV-0" />
        <mxCell id="WIyWlLk6GJQsqaUBKTNV-1" parent="WIyWlLk6GJQsqaUBKTNV-0" />
        <mxCell id="VhhzAOsANryJYTj_Fj5D-0" value="&lt;font style=&quot;font-size: 18px&quot;&gt;Admin&lt;/font&gt;" style="rounded=0;whiteSpace=wrap;html=1;fillColor=#F2CC8F;strokeColor=#E07A5F;strokeWidth=4;fontColor=#393C56;" vertex="1" parent="WIyWlLk6GJQsqaUBKTNV-1">
          <mxGeometry x="434.5" y="140" width="120" height="60" as="geometry" />
        </mxCell>
        <mxCell id="VhhzAOsANryJYTj_Fj5D-1" value="0" style="swimlane;fontSize=18;startSize=40;fillColor=#F2CC8F;strokeColor=#E07A5F;strokeWidth=4;fontColor=#393C56;" vertex="1" parent="WIyWlLk6GJQsqaUBKTNV-1">
          <mxGeometry x="694.5" y="120" width="180" height="120" as="geometry" />
        </mxCell>
        <mxCell id="VhhzAOsANryJYTj_Fj5D-4" value="Meeka Pharmacare&lt;br&gt;LTD." style="text;html=1;align=center;verticalAlign=middle;resizable=0;points=[];autosize=1;fontSize=18;strokeWidth=4;fontColor=#393C56;" vertex="1" parent="VhhzAOsANryJYTj_Fj5D-1">
          <mxGeometry y="50" width="170" height="50" as="geometry" />
        </mxCell>
        <mxCell id="VhhzAOsANryJYTj_Fj5D-2" value="" style="endArrow=classic;html=1;rounded=0;fontSize=18;exitX=1;exitY=0.5;exitDx=0;exitDy=0;fillColor=#F2CC8F;strokeColor=#E07A5F;strokeWidth=4;labelBackgroundColor=#F4F1DE;fontColor=#393C56;" edge="1" parent="WIyWlLk6GJQsqaUBKTNV-1" source="VhhzAOsANryJYTj_Fj5D-0">
          <mxGeometry width="50" height="50" relative="1" as="geometry">
            <mxPoint x="774.5" y="440" as="sourcePoint" />
            <mxPoint x="694.5" y="170" as="targetPoint" />
            <Array as="points" />
          </mxGeometry>
        </mxCell>
        <mxCell id="VhhzAOsANryJYTj_Fj5D-3" value="" style="endArrow=classic;html=1;rounded=0;fontSize=18;entryX=1.008;entryY=0.871;entryDx=0;entryDy=0;entryPerimeter=0;fillColor=#F2CC8F;strokeColor=#E07A5F;strokeWidth=4;labelBackgroundColor=#F4F1DE;fontColor=#393C56;" edge="1" parent="WIyWlLk6GJQsqaUBKTNV-1" target="VhhzAOsANryJYTj_Fj5D-0">
          <mxGeometry width="50" height="50" relative="1" as="geometry">
            <mxPoint x="694.5" y="192" as="sourcePoint" />
            <mxPoint x="824.5" y="390" as="targetPoint" />
          </mxGeometry>
        </mxCell>
        <mxCell id="VhhzAOsANryJYTj_Fj5D-5" value="&lt;font style=&quot;font-size: 18px&quot;&gt;User&lt;/font&gt;" style="rounded=0;whiteSpace=wrap;html=1;fillColor=#F2CC8F;strokeColor=#E07A5F;strokeWidth=4;fontColor=#393C56;" vertex="1" parent="WIyWlLk6GJQsqaUBKTNV-1">
          <mxGeometry x="969.5" y="140" width="120" height="60" as="geometry" />
        </mxCell>
        <mxCell id="VhhzAOsANryJYTj_Fj5D-6" value="" style="endArrow=classic;html=1;rounded=0;fontSize=18;entryX=1;entryY=0.5;entryDx=0;entryDy=0;exitX=0.008;exitY=0.648;exitDx=0;exitDy=0;exitPerimeter=0;fillColor=#F2CC8F;strokeColor=#E07A5F;strokeWidth=4;labelBackgroundColor=#F4F1DE;fontColor=#393C56;" edge="1" parent="WIyWlLk6GJQsqaUBKTNV-1" source="VhhzAOsANryJYTj_Fj5D-5" target="VhhzAOsANryJYTj_Fj5D-1">
          <mxGeometry width="50" height="50" relative="1" as="geometry">
            <mxPoint x="774.5" y="430" as="sourcePoint" />
            <mxPoint x="824.5" y="380" as="targetPoint" />
          </mxGeometry>
        </mxCell>
        <mxCell id="VhhzAOsANryJYTj_Fj5D-7" value="" style="endArrow=classic;html=1;rounded=0;fontSize=18;entryX=-0.003;entryY=0.155;entryDx=0;entryDy=0;exitX=1;exitY=0.25;exitDx=0;exitDy=0;entryPerimeter=0;fillColor=#F2CC8F;strokeColor=#E07A5F;strokeWidth=4;labelBackgroundColor=#F4F1DE;fontColor=#393C56;" edge="1" parent="WIyWlLk6GJQsqaUBKTNV-1" source="VhhzAOsANryJYTj_Fj5D-1" target="VhhzAOsANryJYTj_Fj5D-5">
          <mxGeometry width="50" height="50" relative="1" as="geometry">
            <mxPoint x="985.46" y="470.0000000000001" as="sourcePoint" />
            <mxPoint x="884.5" y="471.12" as="targetPoint" />
          </mxGeometry>
        </mxCell>
        <mxCell id="VhhzAOsANryJYTj_Fj5D-8" value="Add/Upadate &lt;br&gt;data" style="text;html=1;align=center;verticalAlign=middle;resizable=0;points=[];autosize=1;fontSize=18;strokeWidth=4;fontColor=#393C56;" vertex="1" parent="WIyWlLk6GJQsqaUBKTNV-1">
          <mxGeometry x="564.5" y="120" width="120" height="50" as="geometry" />
        </mxCell>
        <mxCell id="VhhzAOsANryJYTj_Fj5D-9" value="See the &lt;br&gt;website" style="text;html=1;align=center;verticalAlign=middle;resizable=0;points=[];autosize=1;fontSize=18;strokeWidth=4;fontColor=#393C56;" vertex="1" parent="WIyWlLk6GJQsqaUBKTNV-1">
          <mxGeometry x="884.5" y="90" width="80" height="50" as="geometry" />
        </mxCell>
        <mxCell id="VhhzAOsANryJYTj_Fj5D-10" value="Requuest&amp;nbsp;&lt;br&gt;for&lt;br&gt;data" style="text;html=1;align=center;verticalAlign=middle;resizable=0;points=[];autosize=1;fontSize=18;strokeWidth=4;fontColor=#393C56;" vertex="1" parent="WIyWlLk6GJQsqaUBKTNV-1">
          <mxGeometry x="869.5" y="190" width="100" height="70" as="geometry" />
        </mxCell>
        <mxCell id="VhhzAOsANryJYTj_Fj5D-11" value="View all data" style="text;html=1;align=center;verticalAlign=middle;resizable=0;points=[];autosize=1;fontSize=18;strokeWidth=4;fontColor=#393C56;" vertex="1" parent="WIyWlLk6GJQsqaUBKTNV-1">
          <mxGeometry x="544.5" y="205" width="120" height="30" as="geometry" />
        </mxCell>
      </root>
    </mxGraphModel>
  </diagram>
  <diagram id="J8myBvKszDZYlazRNf5M" name="Page-2">
    <mxGraphModel dx="2233" dy="1134" grid="0" gridSize="10" guides="1" tooltips="1" connect="1" arrows="1" fold="1" page="1" pageScale="1" pageWidth="1100" pageHeight="850" background="#F4F1DE" math="0" shadow="0">
      <root>
        <mxCell id="X9IIowJ31hEdkmvtoJMV-0" />
        <mxCell id="X9IIowJ31hEdkmvtoJMV-1" parent="X9IIowJ31hEdkmvtoJMV-0" />
        <mxCell id="X9IIowJ31hEdkmvtoJMV-2" style="edgeStyle=orthogonalEdgeStyle;rounded=0;orthogonalLoop=1;jettySize=auto;html=1;entryX=1;entryY=0.5;entryDx=0;entryDy=0;fontSize=18;strokeWidth=4;labelBackgroundColor=#F4F1DE;strokeColor=#E07A5F;fontColor=#393C56;" edge="1" parent="X9IIowJ31hEdkmvtoJMV-1" source="X9IIowJ31hEdkmvtoJMV-9" target="X9IIowJ31hEdkmvtoJMV-29">
          <mxGeometry relative="1" as="geometry" />
        </mxCell>
        <mxCell id="X9IIowJ31hEdkmvtoJMV-3" style="edgeStyle=orthogonalEdgeStyle;rounded=0;orthogonalLoop=1;jettySize=auto;html=1;entryX=0.5;entryY=0;entryDx=0;entryDy=0;fontSize=18;strokeWidth=4;exitX=0.25;exitY=1;exitDx=0;exitDy=0;labelBackgroundColor=#F4F1DE;strokeColor=#E07A5F;fontColor=#393C56;" edge="1" parent="X9IIowJ31hEdkmvtoJMV-1" source="X9IIowJ31hEdkmvtoJMV-9" target="X9IIowJ31hEdkmvtoJMV-20">
          <mxGeometry relative="1" as="geometry" />
        </mxCell>
        <mxCell id="X9IIowJ31hEdkmvtoJMV-4" style="edgeStyle=orthogonalEdgeStyle;rounded=0;orthogonalLoop=1;jettySize=auto;html=1;fontSize=18;strokeWidth=4;labelBackgroundColor=#F4F1DE;strokeColor=#E07A5F;fontColor=#393C56;" edge="1" parent="X9IIowJ31hEdkmvtoJMV-1" source="X9IIowJ31hEdkmvtoJMV-9">
          <mxGeometry relative="1" as="geometry">
            <mxPoint x="1552" y="590" as="targetPoint" />
          </mxGeometry>
        </mxCell>
        <mxCell id="X9IIowJ31hEdkmvtoJMV-5" style="edgeStyle=orthogonalEdgeStyle;rounded=0;orthogonalLoop=1;jettySize=auto;html=1;exitX=0.75;exitY=1;exitDx=0;exitDy=0;entryX=0.5;entryY=0;entryDx=0;entryDy=0;fontSize=18;strokeWidth=4;labelBackgroundColor=#F4F1DE;strokeColor=#E07A5F;fontColor=#393C56;" edge="1" parent="X9IIowJ31hEdkmvtoJMV-1" source="X9IIowJ31hEdkmvtoJMV-9" target="X9IIowJ31hEdkmvtoJMV-23">
          <mxGeometry relative="1" as="geometry" />
        </mxCell>
        <mxCell id="X9IIowJ31hEdkmvtoJMV-6" style="edgeStyle=orthogonalEdgeStyle;rounded=0;orthogonalLoop=1;jettySize=auto;html=1;exitX=1;exitY=0.75;exitDx=0;exitDy=0;entryX=0.5;entryY=0;entryDx=0;entryDy=0;fontSize=18;strokeWidth=4;labelBackgroundColor=#F4F1DE;strokeColor=#E07A5F;fontColor=#393C56;" edge="1" parent="X9IIowJ31hEdkmvtoJMV-1" source="X9IIowJ31hEdkmvtoJMV-9" target="X9IIowJ31hEdkmvtoJMV-26">
          <mxGeometry relative="1" as="geometry">
            <Array as="points">
              <mxPoint x="1502" y="620" />
              <mxPoint x="1502" y="700" />
              <mxPoint x="1644" y="700" />
            </Array>
          </mxGeometry>
        </mxCell>
        <mxCell id="X9IIowJ31hEdkmvtoJMV-7" style="edgeStyle=orthogonalEdgeStyle;rounded=0;orthogonalLoop=1;jettySize=auto;html=1;exitX=0;exitY=0.75;exitDx=0;exitDy=0;entryX=0.5;entryY=0;entryDx=0;entryDy=0;fontSize=18;strokeWidth=4;labelBackgroundColor=#F4F1DE;strokeColor=#E07A5F;fontColor=#393C56;" edge="1" parent="X9IIowJ31hEdkmvtoJMV-1" source="X9IIowJ31hEdkmvtoJMV-9" target="X9IIowJ31hEdkmvtoJMV-17">
          <mxGeometry relative="1" as="geometry">
            <Array as="points">
              <mxPoint x="942" y="620" />
              <mxPoint x="942" y="700" />
              <mxPoint x="812" y="700" />
            </Array>
          </mxGeometry>
        </mxCell>
        <mxCell id="X9IIowJ31hEdkmvtoJMV-8" style="edgeStyle=orthogonalEdgeStyle;rounded=0;orthogonalLoop=1;jettySize=auto;html=1;exitX=0.75;exitY=0;exitDx=0;exitDy=0;entryX=0.869;entryY=1.032;entryDx=0;entryDy=0;entryPerimeter=0;fontSize=18;strokeWidth=4;labelBackgroundColor=#F4F1DE;strokeColor=#E07A5F;fontColor=#393C56;" edge="1" parent="X9IIowJ31hEdkmvtoJMV-1" source="X9IIowJ31hEdkmvtoJMV-9" target="X9IIowJ31hEdkmvtoJMV-12">
          <mxGeometry relative="1" as="geometry" />
        </mxCell>
        <mxCell id="X9IIowJ31hEdkmvtoJMV-9" value="1.0" style="swimlane;fontSize=18;startSize=40;fillColor=#F2CC8F;strokeColor=#E07A5F;strokeWidth=4;fontColor=#393C56;" vertex="1" parent="X9IIowJ31hEdkmvtoJMV-1">
          <mxGeometry x="1134" y="530" width="180" height="120" as="geometry" />
        </mxCell>
        <mxCell id="X9IIowJ31hEdkmvtoJMV-10" value="Meeka Pharmacare&lt;br&gt;ltd" style="text;html=1;align=center;verticalAlign=middle;resizable=0;points=[];autosize=1;strokeColor=none;fillColor=none;fontSize=18;fontColor=#393C56;" vertex="1" parent="X9IIowJ31hEdkmvtoJMV-9">
          <mxGeometry x="5" y="60" width="170" height="50" as="geometry" />
        </mxCell>
        <mxCell id="X9IIowJ31hEdkmvtoJMV-11" style="edgeStyle=orthogonalEdgeStyle;rounded=0;orthogonalLoop=1;jettySize=auto;html=1;exitX=0.25;exitY=1;exitDx=0;exitDy=0;fontSize=18;strokeWidth=4;labelBackgroundColor=#F4F1DE;strokeColor=#E07A5F;fontColor=#393C56;" edge="1" parent="X9IIowJ31hEdkmvtoJMV-1" source="X9IIowJ31hEdkmvtoJMV-12">
          <mxGeometry relative="1" as="geometry">
            <mxPoint x="1194" y="530" as="targetPoint" />
          </mxGeometry>
        </mxCell>
        <mxCell id="X9IIowJ31hEdkmvtoJMV-12" value="&lt;font style=&quot;font-size: 18px&quot;&gt;Admin&lt;/font&gt;" style="rounded=0;whiteSpace=wrap;html=1;fillColor=#F2CC8F;strokeColor=#E07A5F;strokeWidth=4;fontColor=#393C56;" vertex="1" parent="X9IIowJ31hEdkmvtoJMV-1">
          <mxGeometry x="1164" y="390" width="120" height="60" as="geometry" />
        </mxCell>
        <mxCell id="X9IIowJ31hEdkmvtoJMV-13" value="&lt;font style=&quot;font-size: 18px&quot;&gt;User&lt;/font&gt;" style="rounded=0;whiteSpace=wrap;html=1;fillColor=#F2CC8F;strokeColor=#E07A5F;strokeWidth=4;fontColor=#393C56;" vertex="1" parent="X9IIowJ31hEdkmvtoJMV-1">
          <mxGeometry x="1212" y="1410" width="120" height="60" as="geometry" />
        </mxCell>
        <mxCell id="X9IIowJ31hEdkmvtoJMV-14" style="edgeStyle=orthogonalEdgeStyle;rounded=0;orthogonalLoop=1;jettySize=auto;html=1;fontSize=18;strokeWidth=4;labelBackgroundColor=#F4F1DE;strokeColor=#E07A5F;fontColor=#393C56;" edge="1" parent="X9IIowJ31hEdkmvtoJMV-1" source="X9IIowJ31hEdkmvtoJMV-15">
          <mxGeometry relative="1" as="geometry">
            <mxPoint x="1862" y="1040" as="targetPoint" />
          </mxGeometry>
        </mxCell>
        <mxCell id="X9IIowJ31hEdkmvtoJMV-15" value="3.0" style="swimlane;fontSize=18;startSize=40;fillColor=#F2CC8F;strokeColor=#E07A5F;strokeWidth=4;fontColor=#393C56;" vertex="1" parent="X9IIowJ31hEdkmvtoJMV-1">
          <mxGeometry x="1554" y="535" width="180" height="120" as="geometry" />
        </mxCell>
        <mxCell id="X9IIowJ31hEdkmvtoJMV-16" style="edgeStyle=orthogonalEdgeStyle;rounded=0;orthogonalLoop=1;jettySize=auto;html=1;entryX=0.5;entryY=0;entryDx=0;entryDy=0;fontSize=18;strokeWidth=4;labelBackgroundColor=#F4F1DE;strokeColor=#E07A5F;fontColor=#393C56;" edge="1" parent="X9IIowJ31hEdkmvtoJMV-1" source="X9IIowJ31hEdkmvtoJMV-17" target="X9IIowJ31hEdkmvtoJMV-31">
          <mxGeometry relative="1" as="geometry" />
        </mxCell>
        <mxCell id="X9IIowJ31hEdkmvtoJMV-17" value="4.0" style="swimlane;fontSize=18;startSize=40;fillColor=#F2CC8F;strokeColor=#E07A5F;strokeWidth=4;fontColor=#393C56;" vertex="1" parent="X9IIowJ31hEdkmvtoJMV-1">
          <mxGeometry x="722" y="790" width="180" height="120" as="geometry" />
        </mxCell>
        <mxCell id="X9IIowJ31hEdkmvtoJMV-18" value="Update/Add&lt;br&gt;&amp;nbsp;sisterconcern" style="text;html=1;align=center;verticalAlign=middle;resizable=0;points=[];autosize=1;strokeColor=none;fillColor=none;fontSize=18;fontColor=#393C56;" vertex="1" parent="X9IIowJ31hEdkmvtoJMV-17">
          <mxGeometry x="24" y="50" width="130" height="50" as="geometry" />
        </mxCell>
        <mxCell id="X9IIowJ31hEdkmvtoJMV-19" style="edgeStyle=orthogonalEdgeStyle;rounded=0;orthogonalLoop=1;jettySize=auto;html=1;fontSize=18;strokeWidth=4;labelBackgroundColor=#F4F1DE;strokeColor=#E07A5F;fontColor=#393C56;" edge="1" parent="X9IIowJ31hEdkmvtoJMV-1" source="X9IIowJ31hEdkmvtoJMV-20">
          <mxGeometry relative="1" as="geometry">
            <mxPoint x="1102" y="1040" as="targetPoint" />
          </mxGeometry>
        </mxCell>
        <mxCell id="X9IIowJ31hEdkmvtoJMV-20" value="5.0" style="swimlane;fontSize=18;startSize=40;fillColor=#F2CC8F;strokeColor=#E07A5F;strokeWidth=4;fontColor=#393C56;" vertex="1" parent="X9IIowJ31hEdkmvtoJMV-1">
          <mxGeometry x="1012" y="790" width="180" height="120" as="geometry" />
        </mxCell>
        <mxCell id="X9IIowJ31hEdkmvtoJMV-21" value="Add/Update&amp;nbsp;&lt;br&gt;Testimonial" style="text;html=1;align=center;verticalAlign=middle;resizable=0;points=[];autosize=1;strokeColor=none;fillColor=none;fontSize=18;fontColor=#393C56;" vertex="1" parent="X9IIowJ31hEdkmvtoJMV-20">
          <mxGeometry x="30" y="50" width="120" height="50" as="geometry" />
        </mxCell>
        <mxCell id="X9IIowJ31hEdkmvtoJMV-22" style="edgeStyle=orthogonalEdgeStyle;rounded=0;orthogonalLoop=1;jettySize=auto;html=1;entryX=0.5;entryY=0;entryDx=0;entryDy=0;fontSize=18;strokeWidth=4;labelBackgroundColor=#F4F1DE;strokeColor=#E07A5F;fontColor=#393C56;" edge="1" parent="X9IIowJ31hEdkmvtoJMV-1" source="X9IIowJ31hEdkmvtoJMV-23" target="X9IIowJ31hEdkmvtoJMV-40">
          <mxGeometry relative="1" as="geometry" />
        </mxCell>
        <mxCell id="X9IIowJ31hEdkmvtoJMV-23" value="6.0" style="swimlane;fontSize=18;startSize=40;fillColor=#F2CC8F;strokeColor=#E07A5F;strokeWidth=4;fontColor=#393C56;" vertex="1" parent="X9IIowJ31hEdkmvtoJMV-1">
          <mxGeometry x="1287" y="790" width="180" height="120" as="geometry" />
        </mxCell>
        <mxCell id="X9IIowJ31hEdkmvtoJMV-24" value="Add/Update &lt;br&gt;Event&amp;nbsp;" style="text;html=1;align=center;verticalAlign=middle;resizable=0;points=[];autosize=1;strokeColor=none;fillColor=none;fontSize=18;fontColor=#393C56;" vertex="1" parent="X9IIowJ31hEdkmvtoJMV-23">
          <mxGeometry x="35" y="50" width="110" height="50" as="geometry" />
        </mxCell>
        <mxCell id="X9IIowJ31hEdkmvtoJMV-25" style="edgeStyle=orthogonalEdgeStyle;rounded=0;orthogonalLoop=1;jettySize=auto;html=1;entryX=0.5;entryY=0;entryDx=0;entryDy=0;fontSize=18;strokeWidth=4;labelBackgroundColor=#F4F1DE;strokeColor=#E07A5F;fontColor=#393C56;" edge="1" parent="X9IIowJ31hEdkmvtoJMV-1" source="X9IIowJ31hEdkmvtoJMV-26" target="X9IIowJ31hEdkmvtoJMV-46">
          <mxGeometry relative="1" as="geometry" />
        </mxCell>
        <mxCell id="X9IIowJ31hEdkmvtoJMV-26" value="7.0" style="swimlane;fontSize=18;startSize=40;fillColor=#F2CC8F;strokeColor=#E07A5F;strokeWidth=4;fontColor=#393C56;" vertex="1" parent="X9IIowJ31hEdkmvtoJMV-1">
          <mxGeometry x="1554" y="790" width="180" height="120" as="geometry" />
        </mxCell>
        <mxCell id="X9IIowJ31hEdkmvtoJMV-27" value="Add/Update&lt;br&gt;Product" style="text;html=1;align=center;verticalAlign=middle;resizable=0;points=[];autosize=1;strokeColor=none;fillColor=none;fontSize=18;fontColor=#393C56;" vertex="1" parent="X9IIowJ31hEdkmvtoJMV-26">
          <mxGeometry x="35" y="50" width="110" height="50" as="geometry" />
        </mxCell>
        <mxCell id="X9IIowJ31hEdkmvtoJMV-28" style="edgeStyle=orthogonalEdgeStyle;rounded=0;orthogonalLoop=1;jettySize=auto;html=1;entryX=0.5;entryY=0;entryDx=0;entryDy=0;fontSize=18;strokeWidth=4;labelBackgroundColor=#F4F1DE;strokeColor=#E07A5F;fontColor=#393C56;" edge="1" parent="X9IIowJ31hEdkmvtoJMV-1" source="X9IIowJ31hEdkmvtoJMV-29" target="X9IIowJ31hEdkmvtoJMV-34">
          <mxGeometry relative="1" as="geometry" />
        </mxCell>
        <mxCell id="X9IIowJ31hEdkmvtoJMV-29" value="2.0" style="swimlane;fontSize=18;startSize=40;fillColor=#F2CC8F;strokeColor=#E07A5F;strokeWidth=4;fontColor=#393C56;" vertex="1" parent="X9IIowJ31hEdkmvtoJMV-1">
          <mxGeometry x="722" y="530" width="180" height="120" as="geometry" />
        </mxCell>
        <mxCell id="X9IIowJ31hEdkmvtoJMV-30" style="edgeStyle=orthogonalEdgeStyle;rounded=0;orthogonalLoop=1;jettySize=auto;html=1;entryX=0;entryY=0.25;entryDx=0;entryDy=0;fontSize=18;strokeWidth=4;labelBackgroundColor=#F4F1DE;strokeColor=#E07A5F;fontColor=#393C56;" edge="1" parent="X9IIowJ31hEdkmvtoJMV-1" source="X9IIowJ31hEdkmvtoJMV-31" target="X9IIowJ31hEdkmvtoJMV-49">
          <mxGeometry relative="1" as="geometry">
            <Array as="points">
              <mxPoint x="811" y="1230" />
            </Array>
          </mxGeometry>
        </mxCell>
        <mxCell id="X9IIowJ31hEdkmvtoJMV-31" value="D2" style="swimlane;horizontal=0;fontSize=18;strokeWidth=4;fillColor=#F2CC8F;strokeColor=#E07A5F;fontColor=#393C56;" vertex="1" parent="X9IIowJ31hEdkmvtoJMV-1">
          <mxGeometry x="746" y="1040" width="130" height="30" as="geometry">
            <mxRectangle x="208" y="1100" width="40" height="200" as="alternateBounds" />
          </mxGeometry>
        </mxCell>
        <mxCell id="X9IIowJ31hEdkmvtoJMV-32" value="&lt;font style=&quot;font-size: 12px&quot;&gt;SisterCon Data&lt;/font&gt;" style="text;html=1;align=center;verticalAlign=middle;resizable=0;points=[];autosize=1;strokeColor=none;fillColor=none;fontSize=18;fontColor=#393C56;" vertex="1" parent="X9IIowJ31hEdkmvtoJMV-31">
          <mxGeometry x="30" y="-5" width="100" height="30" as="geometry" />
        </mxCell>
        <mxCell id="X9IIowJ31hEdkmvtoJMV-33" style="edgeStyle=orthogonalEdgeStyle;rounded=0;orthogonalLoop=1;jettySize=auto;html=1;entryX=0;entryY=0.5;entryDx=0;entryDy=0;fontSize=18;strokeWidth=4;labelBackgroundColor=#F4F1DE;strokeColor=#E07A5F;fontColor=#393C56;" edge="1" parent="X9IIowJ31hEdkmvtoJMV-1" source="X9IIowJ31hEdkmvtoJMV-34" target="X9IIowJ31hEdkmvtoJMV-49">
          <mxGeometry relative="1" as="geometry">
            <Array as="points">
              <mxPoint x="625" y="1260" />
            </Array>
          </mxGeometry>
        </mxCell>
        <mxCell id="X9IIowJ31hEdkmvtoJMV-34" value="D1" style="swimlane;horizontal=0;fontSize=18;strokeWidth=4;fillColor=#F2CC8F;strokeColor=#E07A5F;fontColor=#393C56;" vertex="1" parent="X9IIowJ31hEdkmvtoJMV-1">
          <mxGeometry x="560" y="1040" width="130" height="30" as="geometry">
            <mxRectangle x="208" y="1100" width="40" height="200" as="alternateBounds" />
          </mxGeometry>
        </mxCell>
        <mxCell id="X9IIowJ31hEdkmvtoJMV-35" value="Slides data" style="text;html=1;align=center;verticalAlign=middle;resizable=0;points=[];autosize=1;strokeColor=none;fillColor=none;fontSize=18;fontColor=#393C56;" vertex="1" parent="X9IIowJ31hEdkmvtoJMV-34">
          <mxGeometry x="22" width="100" height="30" as="geometry" />
        </mxCell>
        <mxCell id="X9IIowJ31hEdkmvtoJMV-36" style="edgeStyle=orthogonalEdgeStyle;rounded=0;orthogonalLoop=1;jettySize=auto;html=1;fontSize=18;strokeWidth=4;labelBackgroundColor=#F4F1DE;strokeColor=#E07A5F;fontColor=#393C56;" edge="1" parent="X9IIowJ31hEdkmvtoJMV-1" source="X9IIowJ31hEdkmvtoJMV-37" target="X9IIowJ31hEdkmvtoJMV-49">
          <mxGeometry relative="1" as="geometry">
            <Array as="points">
              <mxPoint x="1099" y="1130" />
              <mxPoint x="1272" y="1130" />
            </Array>
          </mxGeometry>
        </mxCell>
        <mxCell id="X9IIowJ31hEdkmvtoJMV-37" value="D3" style="swimlane;horizontal=0;fontSize=18;strokeWidth=4;fillColor=#F2CC8F;strokeColor=#E07A5F;fontColor=#393C56;" vertex="1" parent="X9IIowJ31hEdkmvtoJMV-1">
          <mxGeometry x="1034" y="1040" width="130" height="30" as="geometry">
            <mxRectangle x="208" y="1100" width="40" height="200" as="alternateBounds" />
          </mxGeometry>
        </mxCell>
        <mxCell id="X9IIowJ31hEdkmvtoJMV-38" value="Testimonial Data" style="text;html=1;align=center;verticalAlign=middle;resizable=0;points=[];autosize=1;strokeColor=none;fillColor=none;fontSize=12;fontColor=#393C56;" vertex="1" parent="X9IIowJ31hEdkmvtoJMV-37">
          <mxGeometry x="28" y="5" width="100" height="20" as="geometry" />
        </mxCell>
        <mxCell id="X9IIowJ31hEdkmvtoJMV-39" style="edgeStyle=orthogonalEdgeStyle;rounded=0;orthogonalLoop=1;jettySize=auto;html=1;fontSize=18;strokeWidth=4;entryX=0.608;entryY=-0.009;entryDx=0;entryDy=0;entryPerimeter=0;labelBackgroundColor=#F4F1DE;strokeColor=#E07A5F;fontColor=#393C56;" edge="1" parent="X9IIowJ31hEdkmvtoJMV-1" source="X9IIowJ31hEdkmvtoJMV-40" target="X9IIowJ31hEdkmvtoJMV-49">
          <mxGeometry relative="1" as="geometry">
            <mxPoint x="1292" y="1190" as="targetPoint" />
          </mxGeometry>
        </mxCell>
        <mxCell id="X9IIowJ31hEdkmvtoJMV-40" value="D4" style="swimlane;horizontal=0;fontSize=18;strokeWidth=4;fillColor=#F2CC8F;strokeColor=#E07A5F;fontColor=#393C56;" vertex="1" parent="X9IIowJ31hEdkmvtoJMV-1">
          <mxGeometry x="1312" y="1040" width="130" height="30" as="geometry">
            <mxRectangle x="208" y="1100" width="40" height="200" as="alternateBounds" />
          </mxGeometry>
        </mxCell>
        <mxCell id="X9IIowJ31hEdkmvtoJMV-41" value="&lt;font style=&quot;font-size: 16px&quot;&gt;Event Data&lt;/font&gt;" style="text;html=1;align=center;verticalAlign=middle;resizable=0;points=[];autosize=1;strokeColor=none;fillColor=none;fontSize=12;fontColor=#393C56;" vertex="1" parent="X9IIowJ31hEdkmvtoJMV-40">
          <mxGeometry x="30" y="5" width="90" height="20" as="geometry" />
        </mxCell>
        <mxCell id="X9IIowJ31hEdkmvtoJMV-42" style="edgeStyle=orthogonalEdgeStyle;rounded=0;orthogonalLoop=1;jettySize=auto;html=1;fontSize=18;strokeWidth=4;entryX=1;entryY=0.5;entryDx=0;entryDy=0;labelBackgroundColor=#F4F1DE;strokeColor=#E07A5F;fontColor=#393C56;" edge="1" parent="X9IIowJ31hEdkmvtoJMV-1" source="X9IIowJ31hEdkmvtoJMV-43" target="X9IIowJ31hEdkmvtoJMV-49">
          <mxGeometry relative="1" as="geometry">
            <mxPoint x="1362" y="1300" as="targetPoint" />
            <Array as="points">
              <mxPoint x="1847" y="1260" />
            </Array>
          </mxGeometry>
        </mxCell>
        <mxCell id="X9IIowJ31hEdkmvtoJMV-43" value="D6" style="swimlane;horizontal=0;fontSize=18;strokeWidth=4;fillColor=#F2CC8F;strokeColor=#E07A5F;fontColor=#393C56;" vertex="1" parent="X9IIowJ31hEdkmvtoJMV-1">
          <mxGeometry x="1782" y="1040" width="130" height="30" as="geometry">
            <mxRectangle x="208" y="1100" width="40" height="200" as="alternateBounds" />
          </mxGeometry>
        </mxCell>
        <mxCell id="X9IIowJ31hEdkmvtoJMV-44" value="Clients Data" style="text;html=1;align=center;verticalAlign=middle;resizable=0;points=[];autosize=1;strokeColor=none;fillColor=none;fontSize=16;fontColor=#393C56;" vertex="1" parent="X9IIowJ31hEdkmvtoJMV-43">
          <mxGeometry x="20" y="5" width="100" height="20" as="geometry" />
        </mxCell>
        <mxCell id="X9IIowJ31hEdkmvtoJMV-45" style="edgeStyle=orthogonalEdgeStyle;rounded=0;orthogonalLoop=1;jettySize=auto;html=1;entryX=1;entryY=0.25;entryDx=0;entryDy=0;fontSize=18;strokeWidth=4;labelBackgroundColor=#F4F1DE;strokeColor=#E07A5F;fontColor=#393C56;" edge="1" parent="X9IIowJ31hEdkmvtoJMV-1" source="X9IIowJ31hEdkmvtoJMV-46" target="X9IIowJ31hEdkmvtoJMV-49">
          <mxGeometry relative="1" as="geometry">
            <Array as="points">
              <mxPoint x="1644" y="1230" />
            </Array>
          </mxGeometry>
        </mxCell>
        <mxCell id="X9IIowJ31hEdkmvtoJMV-46" value="D5" style="swimlane;horizontal=0;fontSize=18;strokeWidth=4;fillColor=#F2CC8F;strokeColor=#E07A5F;fontColor=#393C56;" vertex="1" parent="X9IIowJ31hEdkmvtoJMV-1">
          <mxGeometry x="1579" y="1040" width="130" height="30" as="geometry">
            <mxRectangle x="208" y="1100" width="40" height="200" as="alternateBounds" />
          </mxGeometry>
        </mxCell>
        <mxCell id="X9IIowJ31hEdkmvtoJMV-47" value="Product Data" style="text;html=1;align=center;verticalAlign=middle;resizable=0;points=[];autosize=1;strokeColor=none;fillColor=none;fontSize=16;fontColor=#393C56;" vertex="1" parent="X9IIowJ31hEdkmvtoJMV-46">
          <mxGeometry x="20" y="5" width="110" height="20" as="geometry" />
        </mxCell>
        <mxCell id="X9IIowJ31hEdkmvtoJMV-48" style="edgeStyle=orthogonalEdgeStyle;rounded=0;orthogonalLoop=1;jettySize=auto;html=1;entryX=0.5;entryY=0;entryDx=0;entryDy=0;fontSize=18;strokeWidth=4;labelBackgroundColor=#F4F1DE;strokeColor=#E07A5F;fontColor=#393C56;" edge="1" parent="X9IIowJ31hEdkmvtoJMV-1" source="X9IIowJ31hEdkmvtoJMV-49" target="X9IIowJ31hEdkmvtoJMV-13">
          <mxGeometry relative="1" as="geometry" />
        </mxCell>
        <mxCell id="X9IIowJ31hEdkmvtoJMV-49" value="8.0" style="swimlane;fontSize=18;startSize=40;fillColor=#F2CC8F;strokeColor=#E07A5F;strokeWidth=4;fontColor=#393C56;" vertex="1" parent="X9IIowJ31hEdkmvtoJMV-1">
          <mxGeometry x="1182" y="1200" width="180" height="120" as="geometry" />
        </mxCell>
        <mxCell id="X9IIowJ31hEdkmvtoJMV-50" value="All Processed Data" style="text;html=1;align=center;verticalAlign=middle;resizable=0;points=[];autosize=1;strokeColor=none;fillColor=none;fontSize=16;fontColor=#393C56;" vertex="1" parent="X9IIowJ31hEdkmvtoJMV-49">
          <mxGeometry x="15" y="60" width="150" height="20" as="geometry" />
        </mxCell>
        <mxCell id="X9IIowJ31hEdkmvtoJMV-51" value="Data Manipulation" style="text;html=1;align=center;verticalAlign=middle;resizable=0;points=[];autosize=1;strokeColor=none;fillColor=none;fontSize=18;fontColor=#393C56;" vertex="1" parent="X9IIowJ31hEdkmvtoJMV-1">
          <mxGeometry x="1026.5" y="460" width="160" height="30" as="geometry" />
        </mxCell>
        <mxCell id="X9IIowJ31hEdkmvtoJMV-52" value="View All data" style="text;html=1;align=center;verticalAlign=middle;resizable=0;points=[];autosize=1;strokeColor=none;fillColor=none;fontSize=18;fontColor=#393C56;" vertex="1" parent="X9IIowJ31hEdkmvtoJMV-1">
          <mxGeometry x="1284" y="480" width="120" height="30" as="geometry" />
        </mxCell>
        <mxCell id="X9IIowJ31hEdkmvtoJMV-53" value="Update Slides" style="text;html=1;align=center;verticalAlign=middle;resizable=0;points=[];autosize=1;strokeColor=none;fillColor=none;fontSize=18;fontColor=#393C56;" vertex="1" parent="X9IIowJ31hEdkmvtoJMV-1">
          <mxGeometry x="737" y="585" width="130" height="30" as="geometry" />
        </mxCell>
        <mxCell id="X9IIowJ31hEdkmvtoJMV-54" value="Add/update clients" style="text;html=1;align=center;verticalAlign=middle;resizable=0;points=[];autosize=1;strokeColor=none;fillColor=none;fontSize=18;fontColor=#393C56;" vertex="1" parent="X9IIowJ31hEdkmvtoJMV-1">
          <mxGeometry x="1562" y="585" width="160" height="30" as="geometry" />
        </mxCell>
        <mxCell id="X9IIowJ31hEdkmvtoJMV-55" value="View all data" style="text;html=1;align=center;verticalAlign=middle;resizable=0;points=[];autosize=1;strokeColor=none;fillColor=none;fontSize=16;fontColor=#393C56;" vertex="1" parent="X9IIowJ31hEdkmvtoJMV-1">
          <mxGeometry x="1272" y="1360" width="110" height="20" as="geometry" />
        </mxCell>
      </root>
    </mxGraphModel>
  </diagram>
  <diagram id="SQzai-kVpGZAZZI9IXEU" name="Page-3">
    <mxGraphModel dx="1563" dy="-56" grid="0" gridSize="10" guides="0" tooltips="1" connect="1" arrows="1" fold="1" page="1" pageScale="1" pageWidth="1100" pageHeight="850" background="#F4F1DE" math="0" shadow="0">
      <root>
        <mxCell id="_z-fKQgreVF2DVtsLtRd-0" />
        <mxCell id="_z-fKQgreVF2DVtsLtRd-1" parent="_z-fKQgreVF2DVtsLtRd-0" />
        <mxCell id="_z-fKQgreVF2DVtsLtRd-2" style="edgeStyle=orthogonalEdgeStyle;rounded=0;orthogonalLoop=1;jettySize=auto;html=1;entryX=0.5;entryY=0;entryDx=0;entryDy=0;fontSize=16;strokeWidth=4;labelBackgroundColor=#F4F1DE;strokeColor=#E07A5F;fontColor=#393C56;" edge="1" parent="_z-fKQgreVF2DVtsLtRd-1" source="_z-fKQgreVF2DVtsLtRd-3" target="_z-fKQgreVF2DVtsLtRd-6">
          <mxGeometry relative="1" as="geometry" />
        </mxCell>
        <mxCell id="_z-fKQgreVF2DVtsLtRd-3" value="7.1" style="swimlane;fontSize=18;startSize=40;fillColor=#F2CC8F;strokeColor=#E07A5F;strokeWidth=4;fontColor=#393C56;" vertex="1" parent="_z-fKQgreVF2DVtsLtRd-1">
          <mxGeometry x="415.5" y="1560" width="180" height="120" as="geometry" />
        </mxCell>
        <mxCell id="_z-fKQgreVF2DVtsLtRd-4" value="Aurhenticating" style="text;html=1;align=center;verticalAlign=middle;resizable=0;points=[];autosize=1;strokeColor=none;fillColor=none;fontSize=16;fontColor=#393C56;" vertex="1" parent="_z-fKQgreVF2DVtsLtRd-3">
          <mxGeometry x="30" y="60" width="120" height="20" as="geometry" />
        </mxCell>
        <mxCell id="_z-fKQgreVF2DVtsLtRd-5" style="edgeStyle=orthogonalEdgeStyle;rounded=0;orthogonalLoop=1;jettySize=auto;html=1;entryX=0;entryY=0.5;entryDx=0;entryDy=0;fontSize=16;strokeWidth=4;labelBackgroundColor=#F4F1DE;strokeColor=#E07A5F;fontColor=#393C56;" edge="1" parent="_z-fKQgreVF2DVtsLtRd-1" source="_z-fKQgreVF2DVtsLtRd-6" target="_z-fKQgreVF2DVtsLtRd-9">
          <mxGeometry relative="1" as="geometry" />
        </mxCell>
        <mxCell id="_z-fKQgreVF2DVtsLtRd-6" value="7.2" style="swimlane;fontSize=18;startSize=40;fillColor=#F2CC8F;strokeColor=#E07A5F;strokeWidth=4;fontColor=#393C56;" vertex="1" parent="_z-fKQgreVF2DVtsLtRd-1">
          <mxGeometry x="250" y="1740" width="180" height="120" as="geometry" />
        </mxCell>
        <mxCell id="_z-fKQgreVF2DVtsLtRd-7" value="Create Product" style="text;html=1;align=center;verticalAlign=middle;resizable=0;points=[];autosize=1;strokeColor=none;fillColor=none;fontSize=16;fontColor=#393C56;" vertex="1" parent="_z-fKQgreVF2DVtsLtRd-6">
          <mxGeometry x="30" y="60" width="120" height="20" as="geometry" />
        </mxCell>
        <mxCell id="_z-fKQgreVF2DVtsLtRd-8" style="edgeStyle=orthogonalEdgeStyle;rounded=0;orthogonalLoop=1;jettySize=auto;html=1;entryX=0.5;entryY=0;entryDx=0;entryDy=0;fontSize=16;strokeWidth=4;labelBackgroundColor=#F4F1DE;strokeColor=#E07A5F;fontColor=#393C56;" edge="1" parent="_z-fKQgreVF2DVtsLtRd-1" source="_z-fKQgreVF2DVtsLtRd-9" target="_z-fKQgreVF2DVtsLtRd-12">
          <mxGeometry relative="1" as="geometry">
            <Array as="points">
              <mxPoint x="685.5" y="1880" />
              <mxPoint x="439.5" y="1880" />
            </Array>
          </mxGeometry>
        </mxCell>
        <mxCell id="_z-fKQgreVF2DVtsLtRd-9" value="7.3" style="swimlane;fontSize=18;startSize=40;fillColor=#F2CC8F;strokeColor=#E07A5F;strokeWidth=4;fontColor=#393C56;" vertex="1" parent="_z-fKQgreVF2DVtsLtRd-1">
          <mxGeometry x="595.5" y="1740" width="180" height="120" as="geometry" />
        </mxCell>
        <mxCell id="_z-fKQgreVF2DVtsLtRd-10" value="Select Category" style="text;html=1;align=center;verticalAlign=middle;resizable=0;points=[];autosize=1;strokeColor=none;fillColor=none;fontSize=16;fontColor=#393C56;" vertex="1" parent="_z-fKQgreVF2DVtsLtRd-9">
          <mxGeometry x="25" y="60" width="130" height="20" as="geometry" />
        </mxCell>
        <mxCell id="_z-fKQgreVF2DVtsLtRd-11" style="edgeStyle=orthogonalEdgeStyle;rounded=0;orthogonalLoop=1;jettySize=auto;html=1;fontSize=16;strokeWidth=4;labelBackgroundColor=#F4F1DE;strokeColor=#E07A5F;fontColor=#393C56;" edge="1" parent="_z-fKQgreVF2DVtsLtRd-1" source="_z-fKQgreVF2DVtsLtRd-12">
          <mxGeometry relative="1" as="geometry">
            <mxPoint x="635.5" y="1989.9999999999995" as="targetPoint" />
          </mxGeometry>
        </mxCell>
        <mxCell id="_z-fKQgreVF2DVtsLtRd-12" value="7.4" style="swimlane;fontSize=18;startSize=40;fillColor=#F2CC8F;strokeColor=#E07A5F;strokeWidth=4;fontColor=#393C56;" vertex="1" parent="_z-fKQgreVF2DVtsLtRd-1">
          <mxGeometry x="350" y="1930" width="180" height="120" as="geometry" />
        </mxCell>
        <mxCell id="_z-fKQgreVF2DVtsLtRd-13" value="Add Description" style="text;html=1;align=center;verticalAlign=middle;resizable=0;points=[];autosize=1;strokeColor=none;fillColor=none;fontSize=16;fontColor=#393C56;" vertex="1" parent="_z-fKQgreVF2DVtsLtRd-12">
          <mxGeometry x="25" y="60" width="130" height="20" as="geometry" />
        </mxCell>
        <mxCell id="_z-fKQgreVF2DVtsLtRd-14" value="D3" style="swimlane;horizontal=0;fontSize=18;strokeWidth=4;fillColor=#F2CC8F;strokeColor=#E07A5F;fontColor=#393C56;" vertex="1" parent="_z-fKQgreVF2DVtsLtRd-1">
          <mxGeometry x="555.5" y="2160" width="130" height="30" as="geometry">
            <mxRectangle x="208" y="1100" width="40" height="200" as="alternateBounds" />
          </mxGeometry>
        </mxCell>
        <mxCell id="_z-fKQgreVF2DVtsLtRd-15" value="Testimonial Data" style="text;html=1;align=center;verticalAlign=middle;resizable=0;points=[];autosize=1;strokeColor=none;fillColor=none;fontSize=12;fontColor=#393C56;" vertex="1" parent="_z-fKQgreVF2DVtsLtRd-14">
          <mxGeometry x="28" y="5" width="100" height="20" as="geometry" />
        </mxCell>
        <mxCell id="_z-fKQgreVF2DVtsLtRd-16" value="" style="endArrow=classic;html=1;rounded=0;fontSize=16;strokeWidth=4;entryX=0.5;entryY=0;entryDx=0;entryDy=0;labelBackgroundColor=#F4F1DE;strokeColor=#E07A5F;fontColor=#393C56;" edge="1" parent="_z-fKQgreVF2DVtsLtRd-1" target="_z-fKQgreVF2DVtsLtRd-3">
          <mxGeometry width="50" height="50" relative="1" as="geometry">
            <mxPoint x="255.5" y="1509.9999999999995" as="sourcePoint" />
            <mxPoint x="665.5" y="1480" as="targetPoint" />
            <Array as="points">
              <mxPoint x="505.5" y="1510" />
            </Array>
          </mxGeometry>
        </mxCell>
        <mxCell id="_z-fKQgreVF2DVtsLtRd-17" style="edgeStyle=orthogonalEdgeStyle;rounded=0;orthogonalLoop=1;jettySize=auto;html=1;fontSize=16;strokeWidth=4;labelBackgroundColor=#F4F1DE;strokeColor=#E07A5F;fontColor=#393C56;" edge="1" parent="_z-fKQgreVF2DVtsLtRd-1" source="_z-fKQgreVF2DVtsLtRd-18">
          <mxGeometry relative="1" as="geometry">
            <mxPoint x="633.5" y="2159.9999999999995" as="targetPoint" />
            <Array as="points">
              <mxPoint x="727.5" y="2105" />
              <mxPoint x="633.5" y="2105" />
            </Array>
          </mxGeometry>
        </mxCell>
        <mxCell id="_z-fKQgreVF2DVtsLtRd-18" value="7.4" style="swimlane;fontSize=18;startSize=40;fillColor=#F2CC8F;strokeColor=#E07A5F;strokeWidth=4;fontColor=#393C56;" vertex="1" parent="_z-fKQgreVF2DVtsLtRd-1">
          <mxGeometry x="637.5" y="1930" width="180" height="120" as="geometry" />
        </mxCell>
        <mxCell id="_z-fKQgreVF2DVtsLtRd-19" value="Save Product" style="text;html=1;align=center;verticalAlign=middle;resizable=0;points=[];autosize=1;strokeColor=none;fillColor=none;fontSize=16;fontColor=#393C56;" vertex="1" parent="_z-fKQgreVF2DVtsLtRd-18">
          <mxGeometry x="35" y="60" width="110" height="20" as="geometry" />
        </mxCell>
        <mxCell id="_z-fKQgreVF2DVtsLtRd-20" value="Checking Admin or Not" style="text;html=1;align=center;verticalAlign=middle;resizable=0;points=[];autosize=1;strokeColor=none;fillColor=none;fontSize=16;fontColor=#393C56;" vertex="1" parent="_z-fKQgreVF2DVtsLtRd-1">
          <mxGeometry x="295.5" y="1480" width="180" height="20" as="geometry" />
        </mxCell>
      </root>
    </mxGraphModel>
  </diagram>
  <diagram id="_DplelEpuZaO2rUk-BCj" name="Page-4">
    <mxGraphModel dx="3126" dy="1588" grid="0" gridSize="10" guides="1" tooltips="1" connect="1" arrows="1" fold="1" page="1" pageScale="1" pageWidth="1100" pageHeight="850" math="0" shadow="0">
      <root>
        <mxCell id="vxo7mlKo6o3KjF6dkbF1-0" />
        <mxCell id="vxo7mlKo6o3KjF6dkbF1-1" parent="vxo7mlKo6o3KjF6dkbF1-0" />
        <mxCell id="vxo7mlKo6o3KjF6dkbF1-2" value="" style="endArrow=none;html=1;rounded=1;sketch=0;fontColor=#393C56;strokeColor=#E07A5F;fillColor=#F2CC8F;curved=0;" edge="1" parent="vxo7mlKo6o3KjF6dkbF1-1">
          <mxGeometry width="50" height="50" relative="1" as="geometry">
            <mxPoint x="360" y="1360" as="sourcePoint" />
            <mxPoint x="360" y="80" as="targetPoint" />
          </mxGeometry>
        </mxCell>
        <mxCell id="vxo7mlKo6o3KjF6dkbF1-3" value="" style="endArrow=none;html=1;rounded=1;sketch=0;fontColor=#393C56;strokeColor=#E07A5F;fillColor=#F2CC8F;curved=0;" edge="1" parent="vxo7mlKo6o3KjF6dkbF1-1">
          <mxGeometry width="50" height="50" relative="1" as="geometry">
            <mxPoint x="680" y="1360" as="sourcePoint" />
            <mxPoint x="680" y="80" as="targetPoint" />
          </mxGeometry>
        </mxCell>
        <mxCell id="vxo7mlKo6o3KjF6dkbF1-4" value="&lt;font style=&quot;font-size: 19px&quot;&gt;Admin&lt;/font&gt;" style="text;html=1;align=center;verticalAlign=middle;resizable=0;points=[];autosize=1;strokeColor=none;fillColor=none;fontColor=#393C56;" vertex="1" parent="vxo7mlKo6o3KjF6dkbF1-1">
          <mxGeometry x="165" y="80" width="70" height="20" as="geometry" />
        </mxCell>
        <mxCell id="vxo7mlKo6o3KjF6dkbF1-5" value="Interface" style="text;html=1;align=center;verticalAlign=middle;resizable=0;points=[];autosize=1;strokeColor=none;fillColor=none;fontSize=19;fontColor=#393C56;" vertex="1" parent="vxo7mlKo6o3KjF6dkbF1-1">
          <mxGeometry x="470" y="75" width="90" height="30" as="geometry" />
        </mxCell>
        <mxCell id="vxo7mlKo6o3KjF6dkbF1-6" value="User" style="text;html=1;align=center;verticalAlign=middle;resizable=0;points=[];autosize=1;strokeColor=none;fillColor=none;fontSize=19;fontColor=#393C56;" vertex="1" parent="vxo7mlKo6o3KjF6dkbF1-1">
          <mxGeometry x="810" y="75" width="60" height="30" as="geometry" />
        </mxCell>
        <mxCell id="vxo7mlKo6o3KjF6dkbF1-12" style="edgeStyle=orthogonalEdgeStyle;curved=0;rounded=1;sketch=0;orthogonalLoop=1;jettySize=auto;html=1;entryX=0;entryY=0.5;entryDx=0;entryDy=0;fontSize=19;fontColor=#393C56;strokeColor=#E07A5F;fillColor=#F2CC8F;" edge="1" parent="vxo7mlKo6o3KjF6dkbF1-1" source="vxo7mlKo6o3KjF6dkbF1-7" target="vxo7mlKo6o3KjF6dkbF1-8">
          <mxGeometry relative="1" as="geometry" />
        </mxCell>
        <mxCell id="vxo7mlKo6o3KjF6dkbF1-7" value="Enter&lt;br&gt;username&lt;br&gt;password" style="rounded=1;whiteSpace=wrap;html=1;sketch=0;fontSize=19;fontColor=#393C56;strokeColor=#E07A5F;fillColor=#F2CC8F;" vertex="1" parent="vxo7mlKo6o3KjF6dkbF1-1">
          <mxGeometry x="140" y="160" width="130" height="80" as="geometry" />
        </mxCell>
        <mxCell id="vxo7mlKo6o3KjF6dkbF1-13" style="edgeStyle=orthogonalEdgeStyle;curved=0;rounded=1;sketch=0;orthogonalLoop=1;jettySize=auto;html=1;fontSize=19;fontColor=#393C56;strokeColor=#E07A5F;fillColor=#F2CC8F;" edge="1" parent="vxo7mlKo6o3KjF6dkbF1-1" source="vxo7mlKo6o3KjF6dkbF1-8" target="vxo7mlKo6o3KjF6dkbF1-9">
          <mxGeometry relative="1" as="geometry" />
        </mxCell>
        <mxCell id="vxo7mlKo6o3KjF6dkbF1-8" value="" style="ellipse;whiteSpace=wrap;html=1;aspect=fixed;rounded=0;sketch=0;fontSize=19;fontColor=#393C56;strokeColor=#E07A5F;fillColor=#F2CC8F;" vertex="1" parent="vxo7mlKo6o3KjF6dkbF1-1">
          <mxGeometry x="475" y="160" width="80" height="80" as="geometry" />
        </mxCell>
        <mxCell id="vxo7mlKo6o3KjF6dkbF1-14" style="edgeStyle=orthogonalEdgeStyle;curved=0;rounded=1;sketch=0;orthogonalLoop=1;jettySize=auto;html=1;entryX=1;entryY=0.5;entryDx=0;entryDy=0;fontSize=19;fontColor=#393C56;strokeColor=#E07A5F;fillColor=#F2CC8F;exitX=1;exitY=0.5;exitDx=0;exitDy=0;" edge="1" parent="vxo7mlKo6o3KjF6dkbF1-1" source="vxo7mlKo6o3KjF6dkbF1-10" target="vxo7mlKo6o3KjF6dkbF1-8">
          <mxGeometry relative="1" as="geometry">
            <Array as="points">
              <mxPoint x="630" y="510" />
              <mxPoint x="630" y="200" />
            </Array>
          </mxGeometry>
        </mxCell>
        <mxCell id="vxo7mlKo6o3KjF6dkbF1-16" style="edgeStyle=orthogonalEdgeStyle;curved=0;rounded=1;sketch=0;orthogonalLoop=1;jettySize=auto;html=1;entryX=0.5;entryY=0;entryDx=0;entryDy=0;fontSize=19;fontColor=#393C56;strokeColor=#E07A5F;fillColor=#F2CC8F;" edge="1" parent="vxo7mlKo6o3KjF6dkbF1-1" source="vxo7mlKo6o3KjF6dkbF1-9" target="vxo7mlKo6o3KjF6dkbF1-10">
          <mxGeometry relative="1" as="geometry" />
        </mxCell>
        <mxCell id="vxo7mlKo6o3KjF6dkbF1-9" value="Login" style="rounded=1;whiteSpace=wrap;html=1;sketch=0;fontSize=19;fontColor=#393C56;strokeColor=#E07A5F;fillColor=#F2CC8F;" vertex="1" parent="vxo7mlKo6o3KjF6dkbF1-1">
          <mxGeometry x="455" y="330" width="120" height="60" as="geometry" />
        </mxCell>
        <mxCell id="vxo7mlKo6o3KjF6dkbF1-26" style="edgeStyle=orthogonalEdgeStyle;curved=0;rounded=1;sketch=0;orthogonalLoop=1;jettySize=auto;html=1;entryX=0;entryY=0.5;entryDx=0;entryDy=0;fontSize=19;fontColor=#393C56;strokeColor=#E07A5F;fillColor=#F2CC8F;" edge="1" parent="vxo7mlKo6o3KjF6dkbF1-1" source="vxo7mlKo6o3KjF6dkbF1-10" target="vxo7mlKo6o3KjF6dkbF1-22">
          <mxGeometry relative="1" as="geometry">
            <Array as="points">
              <mxPoint x="50" y="510" />
              <mxPoint x="50" y="1270" />
            </Array>
          </mxGeometry>
        </mxCell>
        <mxCell id="vxo7mlKo6o3KjF6dkbF1-10" value="Valid?" style="rhombus;whiteSpace=wrap;html=1;rounded=0;sketch=0;fontSize=19;fontColor=#393C56;strokeColor=#E07A5F;fillColor=#F2CC8F;" vertex="1" parent="vxo7mlKo6o3KjF6dkbF1-1">
          <mxGeometry x="475" y="470" width="80" height="80" as="geometry" />
        </mxCell>
        <mxCell id="vxo7mlKo6o3KjF6dkbF1-11" value="User Can see Only All Data&amp;nbsp;" style="rounded=1;whiteSpace=wrap;html=1;sketch=0;fontSize=19;fontColor=#393C56;strokeColor=#E07A5F;fillColor=#F2CC8F;" vertex="1" parent="vxo7mlKo6o3KjF6dkbF1-1">
          <mxGeometry x="820" y="760" width="120" height="60" as="geometry" />
        </mxCell>
        <mxCell id="vxo7mlKo6o3KjF6dkbF1-15" value="NO" style="text;html=1;align=center;verticalAlign=middle;resizable=0;points=[];autosize=1;strokeColor=none;fillColor=none;fontSize=19;fontColor=#393C56;" vertex="1" parent="vxo7mlKo6o3KjF6dkbF1-1">
          <mxGeometry x="570" y="285" width="40" height="30" as="geometry" />
        </mxCell>
        <mxCell id="vxo7mlKo6o3KjF6dkbF1-17" value="Add / Update&lt;br&gt;Client" style="rounded=1;whiteSpace=wrap;html=1;sketch=0;fontSize=19;fontColor=#393C56;strokeColor=#E07A5F;fillColor=#F2CC8F;" vertex="1" parent="vxo7mlKo6o3KjF6dkbF1-1">
          <mxGeometry x="130" y="540" width="130" height="80" as="geometry" />
        </mxCell>
        <mxCell id="vxo7mlKo6o3KjF6dkbF1-18" value="Add / Update&lt;br&gt;Product" style="rounded=1;whiteSpace=wrap;html=1;sketch=0;fontSize=19;fontColor=#393C56;strokeColor=#E07A5F;fillColor=#F2CC8F;" vertex="1" parent="vxo7mlKo6o3KjF6dkbF1-1">
          <mxGeometry x="130" y="680" width="130" height="80" as="geometry" />
        </mxCell>
        <mxCell id="vxo7mlKo6o3KjF6dkbF1-19" value="Add / Update&lt;br&gt;Slides" style="rounded=1;whiteSpace=wrap;html=1;sketch=0;fontSize=19;fontColor=#393C56;strokeColor=#E07A5F;fillColor=#F2CC8F;" vertex="1" parent="vxo7mlKo6o3KjF6dkbF1-1">
          <mxGeometry x="130" y="960" width="130" height="80" as="geometry" />
        </mxCell>
        <mxCell id="vxo7mlKo6o3KjF6dkbF1-22" value="Add / Update&lt;br&gt;Event" style="rounded=1;whiteSpace=wrap;html=1;sketch=0;fontSize=19;fontColor=#393C56;strokeColor=#E07A5F;fillColor=#F2CC8F;" vertex="1" parent="vxo7mlKo6o3KjF6dkbF1-1">
          <mxGeometry x="130" y="1230" width="130" height="80" as="geometry" />
        </mxCell>
        <mxCell id="vxo7mlKo6o3KjF6dkbF1-23" value="Add / Update&lt;br&gt;Testimonial" style="rounded=1;whiteSpace=wrap;html=1;sketch=0;fontSize=19;fontColor=#393C56;strokeColor=#E07A5F;fillColor=#F2CC8F;" vertex="1" parent="vxo7mlKo6o3KjF6dkbF1-1">
          <mxGeometry x="130" y="1090" width="130" height="80" as="geometry" />
        </mxCell>
        <mxCell id="vxo7mlKo6o3KjF6dkbF1-24" value="Add / Update&lt;br&gt;SisterConcern" style="rounded=1;whiteSpace=wrap;html=1;sketch=0;fontSize=19;fontColor=#393C56;strokeColor=#E07A5F;fillColor=#F2CC8F;" vertex="1" parent="vxo7mlKo6o3KjF6dkbF1-1">
          <mxGeometry x="130" y="820" width="130" height="80" as="geometry" />
        </mxCell>
        <mxCell id="vxo7mlKo6o3KjF6dkbF1-27" value="" style="endArrow=classic;html=1;rounded=1;sketch=0;fontSize=19;fontColor=#393C56;strokeColor=#E07A5F;fillColor=#F2CC8F;curved=0;entryX=0;entryY=0.5;entryDx=0;entryDy=0;" edge="1" parent="vxo7mlKo6o3KjF6dkbF1-1" target="vxo7mlKo6o3KjF6dkbF1-17">
          <mxGeometry width="50" height="50" relative="1" as="geometry">
            <mxPoint x="50" y="580" as="sourcePoint" />
            <mxPoint x="570" y="660" as="targetPoint" />
          </mxGeometry>
        </mxCell>
        <mxCell id="vxo7mlKo6o3KjF6dkbF1-28" value="" style="endArrow=classic;html=1;rounded=1;sketch=0;fontSize=19;fontColor=#393C56;strokeColor=#E07A5F;fillColor=#F2CC8F;curved=0;entryX=0;entryY=0.5;entryDx=0;entryDy=0;" edge="1" parent="vxo7mlKo6o3KjF6dkbF1-1">
          <mxGeometry width="50" height="50" relative="1" as="geometry">
            <mxPoint x="50" y="719.83" as="sourcePoint" />
            <mxPoint x="130" y="719.83" as="targetPoint" />
          </mxGeometry>
        </mxCell>
        <mxCell id="vxo7mlKo6o3KjF6dkbF1-29" value="" style="endArrow=classic;html=1;rounded=1;sketch=0;fontSize=19;fontColor=#393C56;strokeColor=#E07A5F;fillColor=#F2CC8F;curved=0;entryX=0;entryY=0.5;entryDx=0;entryDy=0;" edge="1" parent="vxo7mlKo6o3KjF6dkbF1-1">
          <mxGeometry width="50" height="50" relative="1" as="geometry">
            <mxPoint x="50" y="859.83" as="sourcePoint" />
            <mxPoint x="130" y="859.83" as="targetPoint" />
          </mxGeometry>
        </mxCell>
        <mxCell id="vxo7mlKo6o3KjF6dkbF1-30" value="" style="endArrow=classic;html=1;rounded=1;sketch=0;fontSize=19;fontColor=#393C56;strokeColor=#E07A5F;fillColor=#F2CC8F;curved=0;entryX=0;entryY=0.5;entryDx=0;entryDy=0;" edge="1" parent="vxo7mlKo6o3KjF6dkbF1-1">
          <mxGeometry width="50" height="50" relative="1" as="geometry">
            <mxPoint x="50" y="999.8299999999999" as="sourcePoint" />
            <mxPoint x="130" y="999.8299999999999" as="targetPoint" />
          </mxGeometry>
        </mxCell>
        <mxCell id="vxo7mlKo6o3KjF6dkbF1-31" value="" style="endArrow=classic;html=1;rounded=1;sketch=0;fontSize=19;fontColor=#393C56;strokeColor=#E07A5F;fillColor=#F2CC8F;curved=0;entryX=0;entryY=0.5;entryDx=0;entryDy=0;" edge="1" parent="vxo7mlKo6o3KjF6dkbF1-1">
          <mxGeometry width="50" height="50" relative="1" as="geometry">
            <mxPoint x="50" y="1129.83" as="sourcePoint" />
            <mxPoint x="130" y="1129.83" as="targetPoint" />
          </mxGeometry>
        </mxCell>
        <mxCell id="vxo7mlKo6o3KjF6dkbF1-32" value="" style="endArrow=none;html=1;rounded=1;sketch=0;fontSize=19;fontColor=#393C56;strokeColor=#E07A5F;fillColor=#F2CC8F;curved=0;" edge="1" parent="vxo7mlKo6o3KjF6dkbF1-1">
          <mxGeometry width="50" height="50" relative="1" as="geometry">
            <mxPoint y="120" as="sourcePoint" />
            <mxPoint x="1100" y="120" as="targetPoint" />
          </mxGeometry>
        </mxCell>
        <mxCell id="vxo7mlKo6o3KjF6dkbF1-34" style="edgeStyle=orthogonalEdgeStyle;curved=0;rounded=1;sketch=0;orthogonalLoop=1;jettySize=auto;html=1;fontSize=19;fontColor=#393C56;strokeColor=#E07A5F;fillColor=#F2CC8F;" edge="1" parent="vxo7mlKo6o3KjF6dkbF1-1" source="vxo7mlKo6o3KjF6dkbF1-33" target="vxo7mlKo6o3KjF6dkbF1-11">
          <mxGeometry relative="1" as="geometry" />
        </mxCell>
        <mxCell id="vxo7mlKo6o3KjF6dkbF1-35" style="edgeStyle=orthogonalEdgeStyle;curved=0;rounded=1;sketch=0;orthogonalLoop=1;jettySize=auto;html=1;fontSize=19;fontColor=#393C56;strokeColor=#E07A5F;fillColor=#F2CC8F;" edge="1" parent="vxo7mlKo6o3KjF6dkbF1-1" source="vxo7mlKo6o3KjF6dkbF1-33">
          <mxGeometry relative="1" as="geometry">
            <mxPoint x="320" y="510" as="targetPoint" />
          </mxGeometry>
        </mxCell>
        <mxCell id="vxo7mlKo6o3KjF6dkbF1-33" value="" style="rhombus;whiteSpace=wrap;html=1;rounded=0;sketch=0;fontSize=19;fontColor=#393C56;strokeColor=#E07A5F;fillColor=#F2CC8F;" vertex="1" parent="vxo7mlKo6o3KjF6dkbF1-1">
          <mxGeometry x="480" y="750" width="80" height="80" as="geometry" />
        </mxCell>
      </root>
    </mxGraphModel>
  </diagram>
  <diagram id="b9e7aHyTTH3CvASaOhKV" name="Page-5">
    <mxGraphModel dx="1839" dy="934" grid="1" gridSize="10" guides="1" tooltips="1" connect="1" arrows="1" fold="1" page="1" pageScale="1" pageWidth="1100" pageHeight="850" math="0" shadow="0">
      <root>
        <mxCell id="p7xSXesa4OXf3XhruPGa-0" />
        <mxCell id="p7xSXesa4OXf3XhruPGa-1" parent="p7xSXesa4OXf3XhruPGa-0" />
        <mxCell id="p7xSXesa4OXf3XhruPGa-7" style="edgeStyle=orthogonalEdgeStyle;curved=0;rounded=1;sketch=0;orthogonalLoop=1;jettySize=auto;html=1;entryX=0;entryY=0.5;entryDx=0;entryDy=0;fontSize=19;fontColor=#393C56;strokeColor=#E07A5F;fillColor=#F2CC8F;" edge="1" parent="p7xSXesa4OXf3XhruPGa-1" source="p7xSXesa4OXf3XhruPGa-2" target="p7xSXesa4OXf3XhruPGa-6">
          <mxGeometry relative="1" as="geometry" />
        </mxCell>
        <mxCell id="p7xSXesa4OXf3XhruPGa-2" value="Admin" style="shape=umlActor;verticalLabelPosition=bottom;verticalAlign=top;html=1;outlineConnect=0;rounded=0;sketch=0;fontSize=19;fontColor=#393C56;strokeColor=#E07A5F;fillColor=#F2CC8F;" vertex="1" parent="p7xSXesa4OXf3XhruPGa-1">
          <mxGeometry x="180" y="180" width="30" height="60" as="geometry" />
        </mxCell>
        <mxCell id="p7xSXesa4OXf3XhruPGa-3" value="User" style="shape=umlActor;verticalLabelPosition=bottom;verticalAlign=top;html=1;outlineConnect=0;rounded=0;sketch=0;fontSize=19;fontColor=#393C56;strokeColor=#E07A5F;fillColor=#F2CC8F;" vertex="1" parent="p7xSXesa4OXf3XhruPGa-1">
          <mxGeometry x="180" y="480" width="30" height="60" as="geometry" />
        </mxCell>
        <mxCell id="p7xSXesa4OXf3XhruPGa-6" value="Login" style="ellipse;whiteSpace=wrap;html=1;rounded=0;sketch=0;fontSize=19;fontColor=#393C56;strokeColor=#E07A5F;fillColor=#F2CC8F;" vertex="1" parent="p7xSXesa4OXf3XhruPGa-1">
          <mxGeometry x="380" y="170" width="120" height="80" as="geometry" />
        </mxCell>
        <mxCell id="p7xSXesa4OXf3XhruPGa-8" value="Dashboard" style="ellipse;whiteSpace=wrap;html=1;rounded=0;sketch=0;fontSize=19;fontColor=#393C56;strokeColor=#E07A5F;fillColor=#F2CC8F;" vertex="1" parent="p7xSXesa4OXf3XhruPGa-1">
          <mxGeometry x="570" y="270" width="120" height="80" as="geometry" />
        </mxCell>
        <mxCell id="p7xSXesa4OXf3XhruPGa-19" value="" style="endArrow=none;html=1;rounded=1;sketch=0;fontSize=19;fontColor=#393C56;strokeColor=#E07A5F;fillColor=#F2CC8F;curved=0;exitX=1;exitY=0.5;exitDx=0;exitDy=0;entryX=0;entryY=0.375;entryDx=0;entryDy=0;entryPerimeter=0;" edge="1" parent="p7xSXesa4OXf3XhruPGa-1" source="p7xSXesa4OXf3XhruPGa-6" target="p7xSXesa4OXf3XhruPGa-8">
          <mxGeometry width="50" height="50" relative="1" as="geometry">
            <mxPoint x="590" y="420" as="sourcePoint" />
            <mxPoint x="640" y="370" as="targetPoint" />
          </mxGeometry>
        </mxCell>
        <mxCell id="p7xSXesa4OXf3XhruPGa-20" value="Select Slide" style="ellipse;whiteSpace=wrap;html=1;rounded=0;sketch=0;fontSize=19;fontColor=#393C56;strokeColor=#E07A5F;fillColor=#F2CC8F;" vertex="1" parent="p7xSXesa4OXf3XhruPGa-1">
          <mxGeometry x="810" y="180" width="120" height="80" as="geometry" />
        </mxCell>
        <mxCell id="p7xSXesa4OXf3XhruPGa-21" value="" style="endArrow=classic;html=1;rounded=1;sketch=0;fontSize=19;fontColor=#393C56;strokeColor=#E07A5F;fillColor=#F2CC8F;curved=0;entryX=0;entryY=0.5;entryDx=0;entryDy=0;" edge="1" parent="p7xSXesa4OXf3XhruPGa-1" source="p7xSXesa4OXf3XhruPGa-8" target="p7xSXesa4OXf3XhruPGa-20">
          <mxGeometry width="50" height="50" relative="1" as="geometry">
            <mxPoint x="590" y="420" as="sourcePoint" />
            <mxPoint x="640" y="370" as="targetPoint" />
          </mxGeometry>
        </mxCell>
      </root>
    </mxGraphModel>
  </diagram>
</mxfile>
